<svg xmlns="http://www.w3.org/2000/svg" viewBox="0 0 198.57 223.54">
    <title>Asset 1</title>
    <g id="Layer_2" data-name="Layer 2">
        <g id="Layer_1-2" data-name="Layer 1">
            <path
                d="M167.42,0C173.1,2.25,179,3.84,184,7.72c21.71,16.76,18.68,50.54-5.94,62.62-3.58,1.75-4.62,3.64-4.5,7.4.22,6.91.67,13.91-1.56,20.67a37.59,37.59,0,0,1-35.16,25.8q-10.95.21-21.89,0c-2.6-.06-3.38.68-3.31,3.29.19,6.62.21,13.26,0,19.88-.09,2.87.82,4.3,3.47,5.55,14.13,6.7,22.6,21.12,21.43,36a37.42,37.42,0,0,1-26.47,33,37,37,0,0,1-45.34-21.82c-7.12-18.22.6-38.66,18.06-46.91,3.21-1.52,4.28-3.18,4.13-6.6-.27-6.28-.23-12.59,0-18.87.1-2.9-.89-3.47-3.61-3.52-9.75-.19-19.54,1-29.25-.88-15.45-2.91-28-17-29-32.79-.29-4.95-.22-9.93-.21-14.9,0-1.92-.26-3.14-2.37-4.22C5.61,62.72-1.5,50.15.26,32.19,1.54,19.14,12,4.49,29.22.94c.36-.08.62-.62.92-.94H43.07c.14.81.73.88,1.42,1A34.07,34.07,0,0,1,65.38,13.17C81.26,32.28,75.26,59.8,53,70.81c-1.66.81-3.8,1.08-3.63,3.91.26,4.29-.17,8.63.23,12.89.69,7.29,5.63,11.74,12.8,11.75q37,.08,74,0c6.43,0,10.78-3.72,12.34-10,1-3.93.12-7.92.54-11.85.38-3.52-.66-5.36-4.15-7.09-13.59-6.75-20.73-18-20.69-33.26s7.16-26.39,20.75-33.26C148.44,2.28,152,1.29,155.48,0ZM37,49.67A12.71,12.71,0,0,0,49.7,37.26,12.58,12.58,0,1,0,37,49.67Zm124.67,0A12.67,12.67,0,0,0,174,37.4a12.58,12.58,0,1,0-12.37,12.27ZM111.72,186.46a12.44,12.44,0,1,0-12.34,12.32A12.56,12.56,0,0,0,111.72,186.46Z"
                style="fill:#040404" />
        </g>
    </g>
</svg>